<?xml version="1.0" encoding="UTF-8"?>
<svg id="Layer_2" data-name="Layer 2" xmlns="http://www.w3.org/2000/svg" viewBox="0 0 349.95 392.91">
  <defs>
    <style>
      .cls-1 {
        fill: #231f20;
        stroke: #000;
        stroke-miterlimit: 10;
      }
    </style>
  </defs>
  <g id="Layer_1-2" data-name="Layer 1">
    <path class="cls-1" d="M.5,22.11C.5,10.18,9.86.5,21.41.5h153.17c34.32,0,62.04,4.81,83.16,14.44,21.12,9.62,38.58,23.44,52.38,41.44,13.79,18,23.8,38.94,30.01,62.82,6.21,23.88,9.31,49.19,9.31,75.92,0,41.88-4.62,74.36-13.84,97.44-9.23,23.08-22.03,42.42-38.41,58.01-16.39,15.6-33.98,25.98-52.77,31.14-25.7,7.13-48.98,10.69-69.84,10.69H21.41c-11.55,0-20.91-9.68-20.91-21.61V22.11ZM117.68,110.87v170.91c0,11.94,9.36,21.61,20.91,21.61h7.8c24.49,0,41.9-2.81,52.25-8.42,10.35-5.61,18.45-15.41,24.32-29.41,5.86-13.99,8.79-36.67,8.79-68.04,0-41.52-6.56-69.95-19.66-85.28-13.11-15.33-34.84-22.99-65.19-22.99h-8.32c-11.55,0-20.91,9.68-20.91,21.61Z"/>
  </g>
</svg>