<?xml version="1.0" encoding="UTF-8"?>
<svg id="Layer_2" data-name="Layer 2" xmlns="http://www.w3.org/2000/svg" viewBox="0 0 356.67 392.19">
  <defs>
    <style>
      .cls-1 {
        fill: #00aeef;
        stroke: #000;
        stroke-miterlimit: 10;
      }
    </style>
  </defs>
  <g id="Layer_1-2" data-name="Layer 1">
    <path class="cls-1" d="M.5,22.07C.5,10.16,10.04.5,21.82.5h156.12c34.98,0,63.23,4.8,84.76,14.41,21.53,9.61,39.32,23.39,53.39,41.36,14.06,17.97,24.26,38.87,30.58,62.71,6.33,23.84,9.49,49.1,9.49,75.78,0,41.81-4.7,74.23-14.11,97.26-9.4,23.04-22.46,42.34-39.15,57.91-16.7,15.57-34.63,25.93-53.79,31.09-26.19,7.12-49.92,10.67-71.19,10.67H21.82c-11.77,0-21.32-9.66-21.32-21.57V22.07ZM119.93,110.67v170.59c0,11.92,9.54,21.57,21.32,21.57h7.95c24.96,0,42.71-2.8,53.26-8.41,10.55-5.6,18.81-15.38,24.78-29.35,5.97-13.96,8.96-36.6,8.96-67.91,0-41.45-6.68-69.82-20.04-85.12-13.36-15.3-35.51-22.95-66.44-22.95h-8.48c-11.77,0-21.32,9.66-21.32,21.57Z"/>
  </g>
</svg>