<?xml version="1.0" encoding="UTF-8"?>
<svg id="Layer_2" data-name="Layer 2" xmlns="http://www.w3.org/2000/svg" viewBox="0 0 358.36 394">
  <defs>
    <style>
      .cls-1 {
        fill: #ec008c;
        stroke: #000;
        stroke-miterlimit: 10;
      }
    </style>
  </defs>
  <g id="Layer_1-2" data-name="Layer 1">
    <path class="cls-1" d="M.5,22.17C.5,10.2,10.09.5,21.92.5h156.86c35.14,0,63.53,4.83,85.17,14.48,21.63,9.65,39.51,23.5,53.64,41.55,14.13,18.05,24.37,39.05,30.73,63,6.36,23.95,9.54,49.33,9.54,76.13,0,42-4.73,74.57-14.17,97.71-9.45,23.15-22.56,42.54-39.34,58.17-16.78,15.64-34.79,26.05-54.04,31.23-26.32,7.15-50.16,10.72-71.52,10.72H21.92c-11.83,0-21.42-9.7-21.42-21.67V22.17ZM120.5,111.18v171.38c0,11.97,9.59,21.67,21.42,21.67h7.99c25.07,0,42.91-2.81,53.51-8.44,10.6-5.63,18.9-15.46,24.9-29.49,6-14.03,9.01-36.77,9.01-68.23,0-41.64-6.71-70.15-20.13-85.52-13.42-15.37-35.68-23.05-66.76-23.05h-8.52c-11.83,0-21.42,9.7-21.42,21.67Z"/>
  </g>
</svg>