<?xml version="1.0" encoding="UTF-8"?>
<svg id="Layer_2" data-name="Layer 2" xmlns="http://www.w3.org/2000/svg" viewBox="0 0 360.47 395.45">
  <defs>
    <style>
      .cls-1 {
        fill: #f7feff;
        stroke: #000;
        stroke-width: 3px;
      }
    </style>
  </defs>
  <g id="Layer_1-2" data-name="Layer 1">
    <g>
      <path class="cls-1" d="M1.5,23.14C1.5,11.19,11.09,1.5,22.92,1.5h156.91c35.15,0,63.55,4.82,85.19,14.46,21.64,9.64,39.52,23.47,53.66,41.49,14.13,18.03,24.38,39,30.74,62.91,6.36,23.92,9.54,49.26,9.54,76.03,0,41.94-4.73,74.47-14.18,97.58-9.45,23.11-22.57,42.48-39.35,58.09-16.79,15.62-34.8,26.01-54.06,31.19-26.33,7.14-50.17,10.71-71.55,10.71H22.92c-11.83,0-21.42-9.69-21.42-21.64V23.14ZM121.54,112.02v171.14c0,11.95,9.59,21.64,21.42,21.64h7.99c25.08,0,42.93-2.81,53.53-8.43,10.6-5.62,18.9-15.43,24.91-29.45,6-14.01,9.01-36.72,9.01-68.13,0-41.58-6.71-70.05-20.14-85.4-13.43-15.35-35.69-23.02-66.78-23.02h-8.52c-11.83,0-21.42,9.69-21.42,21.64Z"/>
      <rect x="27.94" y="326.81" width="44.74" height="44.74" rx="6.94" ry="6.94"/>
    </g>
  </g>
</svg>