<?xml version="1.0" encoding="UTF-8"?>
<svg id="Layer_2" data-name="Layer 2" xmlns="http://www.w3.org/2000/svg" viewBox="0 0 355.82 392.45">
  <defs>
    <style>
      .cls-1 {
        fill: #fff200;
        stroke: #000;
        stroke-miterlimit: 10;
      }
    </style>
  </defs>
  <g id="Layer_1-2" data-name="Layer 1">
    <path class="cls-1" d="M.5,22.09C.5,10.17,10.02.5,21.77.5h155.75c34.89,0,63.08,4.81,84.56,14.42,21.48,9.61,39.23,23.41,53.26,41.39,14.03,17.98,24.2,38.9,30.51,62.75,6.31,23.86,9.47,49.13,9.47,75.83,0,41.83-4.69,74.28-14.07,97.33-9.38,23.06-22.4,42.37-39.06,57.94-16.66,15.58-34.55,25.95-53.66,31.11-26.13,7.12-49.8,10.68-71.02,10.68H21.77c-11.74,0-21.27-9.67-21.27-21.59V22.09ZM119.65,110.74v170.71c0,11.92,9.52,21.59,21.27,21.59h7.93c24.9,0,42.61-2.8,53.13-8.41,10.52-5.61,18.76-15.4,24.72-29.37,5.96-13.97,8.94-36.62,8.94-67.96,0-41.48-6.67-69.87-19.99-85.18-13.33-15.31-35.42-22.96-66.28-22.96h-8.46c-11.74,0-21.27,9.67-21.27,21.59Z"/>
  </g>
</svg>